<svg width="68" height="65" viewBox="0 0 68 65" fill="none" xmlns="http://www.w3.org/2000/svg">
<path d="M60.8249 24.6005C61.8587 21.9314 62.1573 19.3863 61.4146 17.1021C61.0718 17.1319 60.7183 17.1468 60.3542 17.1468C49.4721 17.1468 30.2388 4.06859 28.7831 2.03125C22.7853 10.3827 10.2138 16.8035 4.53156 24.0043C2.23231 26.9181 1.08269 29.0865 3.37025 32.4198L27.3286 61.8455C28.4091 63.244 30.5267 63.3577 32.0344 62.0679C32.0344 62.0679 51.6821 37.9681 65.8761 30.5114C64.8093 28.5198 63.0339 26.5322 60.8249 24.6005ZM26.911 55.6095L26.8111 55.6755L26.7208 55.7507C26.3548 56.0649 26.0295 56.4198 25.7518 56.808L4.99269 31.3127C3.49775 29.1017 3.92169 27.9378 6.12212 25.1509C8.61794 21.9893 12.6066 18.9201 16.83 15.6711C21.2202 12.2931 25.7423 8.81562 29.0636 4.85875C34.5461 9.17109 49.8812 18.6926 59.8039 19.0409C60.9939 30.2098 36.7668 49.0384 26.911 55.6095Z" fill="#3D5300"/>
<path d="M21.2426 14.3791L48.0229 34.4377L48.977 33.6211L21.9396 13.7819L21.2426 14.3791ZM29.9699 25.0564L19.0092 16.2895C19.0092 16.2895 15.1948 18.6173 10.5751 23.7229L20.2991 33.3327L29.9699 25.0564ZM5.95638 28.4983L26.6411 52.7322L30.4608 49.4649L8.40756 25.3631C8.40756 25.3631 6.4855 26.3574 5.95638 28.4983ZM29.1337 29.8877L41.1496 40.3182L44.9671 37.0509L32.4562 27.045L29.1337 29.8877ZM22.4889 35.5742L33.5144 46.8517L37.3309 43.5854L25.8113 32.7315L22.4889 35.5742ZM29.5981 10.924L27.9777 15.2729L28.9935 15.9797L34.1519 11.5648L33.1426 10.9575L29.5885 13.9993L31.1599 9.76005L30.1059 9.12427L25.1897 13.331L26.0706 13.9434L29.5981 10.924ZM34.0127 19.4786L34.9966 18.6346L31.9951 16.5952L33.3561 15.4313L36.0219 17.1761L36.9686 16.3647L34.2731 14.6442L35.3972 13.6834L38.3817 15.5288L39.3507 14.7011L35.224 12.2108L29.9986 16.6825L34.0127 19.4786ZM37.2098 21.7048L41.2887 19.3435L42.6243 18.535L41.7382 19.6299L39.1138 23.0333L40.3814 23.9158L48.2311 20.0575L46.7415 19.1586L42.4373 21.5129L41.3387 22.1486L42.0761 21.2214L44.6271 17.883L43.1949 17.0197L39.2158 19.377L38.1586 20.0158L38.8864 19.1312L41.2962 15.8741L39.9532 15.0636L36.0634 20.9065L37.2098 21.7048ZM51.9637 22.044C50.9979 21.4641 50.0958 21.1868 49.2522 21.2031C48.4164 21.2207 47.7282 21.4611 47.1877 21.9242C46.5935 22.432 46.3941 22.9591 46.5896 23.5055C46.7029 23.8325 47.0709 24.3092 47.6935 24.9355L48.3384 25.5835C48.7231 25.966 48.9699 26.2775 49.079 26.5179C49.1852 26.7616 49.1335 26.9729 48.9239 27.1516C48.5655 27.4563 48.0997 27.5152 47.5267 27.3283C47.1703 27.1998 46.8348 27.0237 46.5301 26.8053C45.9244 26.3929 45.6301 25.9958 45.6376 25.6129C45.6418 25.4037 45.7615 25.164 45.9967 24.8939L44.6037 23.9656C43.9747 24.5018 43.7385 25.1024 43.8951 25.7673C44.0534 26.4386 44.5921 27.1008 45.5271 27.7529C46.4589 28.4059 47.3864 28.7553 48.2981 28.7939C49.2192 28.8315 49.9779 28.5999 50.5622 28.0972C51.136 27.6069 51.3407 27.0819 51.1764 26.5219C51.0722 26.1634 50.7801 25.746 50.3083 25.2707L49.2511 24.2043C48.8495 23.8028 48.608 23.5224 48.5265 23.3633C48.399 23.1209 48.445 22.9063 48.6646 22.7194C48.9033 22.5149 49.2097 22.4306 49.5837 22.4665C49.9626 22.5024 50.3586 22.6473 50.7716 22.9012C51.1477 23.1328 51.4101 23.3725 51.5589 23.6203C51.7862 23.9947 51.7243 24.3536 51.3729 24.6968L52.9422 25.685C53.5939 25.0831 53.7983 24.4473 53.5553 23.7777C53.3166 23.1142 52.7861 22.5363 51.9637 22.044Z" fill="#3D5300"/>
</svg>
