<svg width="71" height="68" viewBox="0 0 71 68" fill="none" xmlns="http://www.w3.org/2000/svg">
<path d="M35.5 0C21.2918 0 9.31738 9.44234 5.46154 22.3385C2.01531 24.3285 0 28.162 0 32.6502C0 39.1571 4.13712 44.4334 10.9231 44.4334C11.6473 44.4334 12.3419 44.1576 12.854 43.6665C13.3661 43.1754 13.6538 42.5094 13.6538 41.8149V23.4854C13.6538 22.2809 12.7609 21.3356 11.6058 21.0292C15.5927 11.6497 24.7954 5.07728 35.5 5.07728C46.2046 5.07728 55.4073 11.6497 59.3942 21.0318C58.2391 21.3382 57.3462 22.2809 57.3462 23.4854V41.8149C57.3462 42.5094 57.6339 43.1754 58.146 43.6665C58.6581 44.1576 59.3527 44.4334 60.0769 44.4334C60.7132 44.4334 61.2812 44.3601 61.8683 44.2685C60.9863 49.1546 58.8453 52.7969 56.6635 55.3186C55.5472 56.6211 54.2562 57.7763 52.824 58.7541C52.4184 59.0319 51.9901 59.278 51.5433 59.4899C51.3849 59.5632 51.2538 59.6313 51.2019 59.6548H46.0817C45.0987 56.9159 41.9692 54.9075 38.2308 54.9075C33.7059 54.9075 30.0385 57.8402 30.0385 61.4537C30.0385 65.0673 33.7059 68 38.2308 68C41.9692 68 45.0987 65.989 46.0817 63.2526H51.4586C52.3816 63.2526 52.6165 63.017 53.1653 62.763C53.7115 62.5064 54.3587 62.1581 55.0414 61.6999C56.4068 60.7834 58.0589 59.448 59.6509 57.6071C62.5292 54.2816 65.2108 49.3458 65.8798 42.7157C69.1021 40.6628 71 36.9759 71 32.6502C71 28.162 68.9847 24.3312 65.5385 22.3385C61.6826 9.44234 49.7082 0.00261851 35.5 0.00261851V0Z" fill="#3D5300"/>
</svg>
