<svg width="82" height="77" viewBox="0 0 82 77" fill="none" xmlns="http://www.w3.org/2000/svg">
<path d="M20.5 61.5666H28.7V53.8708H36.9V46.1749H28.7V38.4791H20.5V46.1749H12.3V53.8708H20.5V61.5666ZM45.1 48.0989H69.7V42.327H45.1V48.0989ZM45.1 59.6426H61.5V53.8708H45.1V59.6426ZM8.2 76.9582C5.945 76.9582 4.01527 76.2053 2.4108 74.6995C0.806334 73.1937 0.00273333 71.3813 0 69.2624V26.9354C0 24.819 0.8036 23.0079 2.4108 21.5021C4.018 19.9963 5.94773 19.2421 8.2 19.2396H28.7V7.69582C28.7 5.57947 29.5036 3.76839 31.1108 2.26257C32.718 0.756756 34.6477 0.00256527 36.9 0H45.1C47.355 0 49.2861 0.754191 50.8933 2.26257C52.5005 3.77095 53.3027 5.58204 53.3 7.69582V19.2396H73.8C76.055 19.2396 77.9861 19.9937 79.5933 21.5021C81.2005 23.0105 82.0027 24.8216 82 26.9354V69.2624C82 71.3788 81.1978 73.1911 79.5933 74.6995C77.9888 76.2079 76.0577 76.9608 73.8 76.9582H8.2ZM36.9 26.9354H45.1V7.69582H36.9V26.9354Z" fill="#3D5300"/>
</svg>
