<svg width="71" height="71" viewBox="0 0 71 71" fill="none" xmlns="http://www.w3.org/2000/svg">
<g clip-path="url(#clip0_312_2077)">
<path d="M35.2433 -0.0844251C35.1278 -0.0635709 35.0138 -0.0352943 34.902 0.00022871C34.2854 0.13841 33.7359 0.486097 33.347 0.98404C32.9581 1.48198 32.7539 2.09937 32.7692 2.731V5.46177H8.19231C6.01957 5.46177 3.93583 6.32488 2.39947 7.86124C0.863116 9.3976 0 11.4813 0 13.6541L0 49.1541C0 53.6762 3.67015 57.3464 8.19231 57.3464H32.7692V58.3704L17.9193 65.7954C17.2631 66.1122 16.7597 66.6768 16.5198 67.3648C16.2799 68.0528 16.3231 68.808 16.6399 69.4642C16.9568 70.1203 17.5213 70.6238 18.2094 70.8637C18.8974 71.1036 19.6526 71.0604 20.3087 70.7435L32.7692 64.5147V65.5387C32.7692 66.2629 33.0569 66.9575 33.5691 67.4696C34.0812 67.9818 34.7758 68.2695 35.5 68.2695C36.2242 68.2695 36.9188 67.9818 37.4309 67.4696C37.9431 66.9575 38.2308 66.2629 38.2308 65.5387V64.5147L50.6913 70.7435C51.3474 71.0604 52.1026 71.1036 52.7906 70.8637C53.4787 70.6238 54.0432 70.1203 54.3601 69.4642C54.6769 68.808 54.7201 68.0528 54.4802 67.3648C54.2403 66.6768 53.7369 66.1122 53.0807 65.7954L38.2308 58.3704V57.3464H62.8077C67.3298 57.3464 71 53.6762 71 49.1541V13.6541C71 11.4813 70.1369 9.3976 68.6005 7.86124C67.0642 6.32488 64.9804 5.46177 62.8077 5.46177H38.2308V2.731C38.2446 2.34268 38.1753 1.95588 38.0277 1.59646C37.88 1.23704 37.6574 0.913266 37.3746 0.646771C37.0918 0.380276 36.7554 0.177198 36.3879 0.051104C36.0203 -0.0749897 35.6301 -0.121195 35.2433 -0.0844251ZM5.46154 13.6541H65.5385V49.1541H5.46154V13.6541ZM57.0048 16.3848C56.3931 16.4506 55.8215 16.721 55.3827 17.1522L46.4231 26.1146L40.1942 19.8802C39.8959 19.5741 39.5299 19.3423 39.1257 19.2035C38.7215 19.0646 38.2903 19.0226 37.8669 19.0808C37.4434 19.139 37.0396 19.2957 36.6878 19.5384C36.336 19.7812 36.046 20.1031 35.8413 20.4783L27.7337 34.6455L24.4049 26.2812C24.2432 25.8493 23.9749 25.4654 23.6248 25.1652C23.2747 24.8651 22.8543 24.6585 22.4028 24.5647C21.9513 24.4709 21.4834 24.493 21.0427 24.6289C20.6021 24.7647 20.203 25.01 19.8827 25.3418L11.6904 33.5341C11.4322 33.7921 11.2274 34.0984 11.0876 34.4356C10.9478 34.7728 10.8757 35.1342 10.8756 35.4993C10.8755 35.8643 10.9473 36.2258 11.0868 36.563C11.2264 36.9003 11.431 37.2068 11.6891 37.465C11.9471 37.7232 12.2534 37.9281 12.5906 38.0679C12.9278 38.2077 13.2892 38.2797 13.6542 38.2798C14.0193 38.28 14.3807 38.2082 14.718 38.0686C15.0553 37.929 15.3618 37.7244 15.62 37.4664L20.8248 32.2615L24.7517 41.9885C24.937 42.4764 25.2583 42.9009 25.6774 43.2118C26.0965 43.5228 26.5959 43.7071 27.1165 43.743C27.6371 43.7789 28.1571 43.6649 28.615 43.4145C29.0728 43.164 29.4493 42.7876 29.6998 42.3299L38.8315 26.3713L44.4624 32.0048C44.717 32.2683 45.0221 32.4778 45.3594 32.6209C45.6967 32.764 46.0594 32.8377 46.4258 32.8377C46.7922 32.8377 47.1549 32.764 47.4922 32.6209C47.8295 32.4778 48.1346 32.2683 48.3892 32.0048L59.3123 21.0818C59.7437 20.6824 60.0347 20.1545 60.142 19.5765C60.2494 18.9986 60.1673 18.4014 59.9081 17.8738C59.6489 17.3462 59.2264 16.9163 58.7033 16.648C58.1802 16.3798 57.5845 16.2875 57.0048 16.3848Z" fill="#3D5300"/>
</g>
<defs>
<clipPath id="clip0_312_2077">
<rect width="71" height="71" fill="white"/>
</clipPath>
</defs>
</svg>
