<svg xmlns="http://www.w3.org/2000/svg" xmlns:xlink="http://www.w3.org/1999/xlink" width="1366" zoomAndPan="magnify" viewBox="0 0 1024.5 576" height="768" preserveAspectRatio="xMidYMid meet" version="1.0"><defs><filter x="0%" y="0%" width="100%" height="100%" id="79a3ac3e21"><feColorMatrix values="0 0 0 0 1 0 0 0 0 1 0 0 0 0 1 0 0 0 1 0" color-interpolation-filters="sRGB"/></filter><clipPath id="2f68d42372"><path d="M 195 0.140625 L 1024 0.140625 L 1024 575.859375 L 195 575.859375 Z M 195 0.140625 " clip-rule="nonzero"/></clipPath><mask id="4409389784"><g filter="url(#79a3ac3e21)"><rect x="-102.45" width="1229.4" fill="#000000" y="-57.6" height="691.2" fill-opacity="0.26"/></g></mask><clipPath id="f07b9ade02"><path d="M 208 0.140625 L 829 0.140625 L 829 545 L 208 545 Z M 208 0.140625 " clip-rule="nonzero"/></clipPath><clipPath id="3899661685"><path d="M 337.859375 -249.949219 L 1079.136719 393.015625 L 741.691406 782.058594 L 0.414062 139.09375 Z M 337.859375 -249.949219 " clip-rule="nonzero"/></clipPath><clipPath id="8e808b6791"><path d="M 337.859375 -249.949219 L 1079.136719 393.015625 L 741.691406 782.058594 L 0.414062 139.09375 Z M 337.859375 -249.949219 " clip-rule="nonzero"/></clipPath><clipPath id="8be1a82306"><path d="M 369 288 L 520 288 L 520 460 L 369 460 Z M 369 288 " clip-rule="nonzero"/></clipPath><clipPath id="139067bf8b"><path d="M 337.859375 -249.949219 L 1079.136719 393.015625 L 741.691406 782.058594 L 0.414062 139.09375 Z M 337.859375 -249.949219 " clip-rule="nonzero"/></clipPath><clipPath id="5e3768705d"><path d="M 337.859375 -249.949219 L 1079.136719 393.015625 L 741.691406 782.058594 L 0.414062 139.09375 Z M 337.859375 -249.949219 " clip-rule="nonzero"/></clipPath><clipPath id="1b0394992d"><path d="M 505 130 L 583 130 L 583 231 L 505 231 Z M 505 130 " clip-rule="nonzero"/></clipPath><clipPath id="8b8f101755"><path d="M 337.859375 -249.949219 L 1079.136719 393.015625 L 741.691406 782.058594 L 0.414062 139.09375 Z M 337.859375 -249.949219 " clip-rule="nonzero"/></clipPath><clipPath id="23ab44f910"><path d="M 337.859375 -249.949219 L 1079.136719 393.015625 L 741.691406 782.058594 L 0.414062 139.09375 Z M 337.859375 -249.949219 " clip-rule="nonzero"/></clipPath><clipPath id="97438d29b1"><path d="M 627 188 L 829 188 L 829 291 L 627 291 Z M 627 188 " clip-rule="nonzero"/></clipPath><clipPath id="c6874eeeba"><path d="M 337.859375 -249.949219 L 1079.136719 393.015625 L 741.691406 782.058594 L 0.414062 139.09375 Z M 337.859375 -249.949219 " clip-rule="nonzero"/></clipPath><clipPath id="ed591d2bbf"><path d="M 337.859375 -249.949219 L 1079.136719 393.015625 L 741.691406 782.058594 L 0.414062 139.09375 Z M 337.859375 -249.949219 " clip-rule="nonzero"/></clipPath><clipPath id="fffd8a5b24"><path d="M 299 114 L 384 114 L 384 205 L 299 205 Z M 299 114 " clip-rule="nonzero"/></clipPath><clipPath id="b8583a355e"><path d="M 337.859375 -249.949219 L 1079.136719 393.015625 L 741.691406 782.058594 L 0.414062 139.09375 Z M 337.859375 -249.949219 " clip-rule="nonzero"/></clipPath><clipPath id="60861f0b7d"><path d="M 337.859375 -249.949219 L 1079.136719 393.015625 L 741.691406 782.058594 L 0.414062 139.09375 Z M 337.859375 -249.949219 " clip-rule="nonzero"/></clipPath><clipPath id="285da890db"><path d="M 813 476 L 829 476 L 829 517 L 813 517 Z M 813 476 " clip-rule="nonzero"/></clipPath><clipPath id="8e988beff7"><path d="M 337.859375 -249.949219 L 1079.136719 393.015625 L 741.691406 782.058594 L 0.414062 139.09375 Z M 337.859375 -249.949219 " clip-rule="nonzero"/></clipPath><clipPath id="cf32312db3"><path d="M 337.859375 -249.949219 L 1079.136719 393.015625 L 741.691406 782.058594 L 0.414062 139.09375 Z M 337.859375 -249.949219 " clip-rule="nonzero"/></clipPath><clipPath id="cde5ae9024"><rect x="0" width="829" y="0" height="576"/></clipPath></defs><g clip-path="url(#2f68d42372)"><g mask="url(#4409389784)"><g transform="matrix(1, 0, 0, 1, 195, 0.000000000000055289)"><g clip-path="url(#cde5ae9024)"><g clip-path="url(#f07b9ade02)"><g clip-path="url(#3899661685)"><g clip-path="url(#8e808b6791)"><path fill="#000000" d="M 208.628906 -100.957031 L 249.113281 -68.363281 L 263.472656 -41.363281 L 267.160156 -20.28125 L 308.339844 -4.019531 L 318.679688 21.445312 C 318.679688 21.445312 357.40625 64.414062 360.476562 66.828125 C 363.546875 69.238281 371.800781 79.105469 371.800781 79.105469 L 381.371094 89.484375 L 383.34375 119.152344 L 399.015625 136.144531 L 412.96875 151.269531 L 426.925781 166.398438 L 459.113281 180.464844 C 459.113281 180.464844 468.464844 196.320312 474.785156 197.457031 C 481.070312 198.628906 495.976562 212.878906 494.808594 219.234375 C 493.636719 225.519531 500.945312 246.78125 500.945312 246.78125 C 500.945312 246.78125 495.71875 263.84375 500.035156 268.59375 C 504.382812 273.3125 516.039062 299.289062 524.40625 295.085938 C 532.773438 290.882812 549.984375 292.527344 563.574219 293.992188 C 577.164062 295.453125 613.851562 287.855469 618.308594 290.777344 C 622.726562 293.667969 631.238281 308.605469 635.730469 309.667969 C 640.261719 310.765625 661.425781 347.191406 661.425781 347.191406 C 661.425781 347.191406 678.660156 394.253906 682.203125 396.191406 C 684.027344 397.210938 692.089844 402 699.523438 406.496094 C 706.675781 410.808594 713.261719 414.757812 713.261719 414.757812 C 713.261719 414.757812 740.023438 425.0625 738.917969 431.34375 C 737.8125 437.628906 766.089844 479.722656 766.089844 479.722656 L 790.289062 487.175781 C 790.289062 487.175781 803.304688 501.421875 809.46875 507.964844 C 815.632812 514.507812 813.953125 533.574219 821.992188 536.644531 C 830.035156 539.71875 843.449219 544.867188 843.449219 544.867188 L 827.777344 527.875 L 818.417969 491.042969 L 800.625 481.214844 L 767.675781 462.648438 L 747.316406 428.996094 L 731.714844 410.175781 L 696.285156 385.109375 L 680.457031 350.730469 L 655.578125 314.226562 L 631.574219 278.675781 L 564.921875 284.015625 L 534.191406 279.082031 L 515.015625 258.292969 L 510.449219 236.261719 L 508.996094 214.851562 L 476.113281 179.15625 L 453.125 165.007812 L 427.039062 152.328125 L 421.265625 143.230469 L 392.21875 103.113281 L 390.582031 86.269531 L 373.476562 61.417969 L 355.984375 48.703125 L 332.492188 23.160156 L 327.585938 0.140625 L 315.964844 -15.351562 L 294.011719 -18.714844 L 275.007812 -31.359375 L 254.949219 -74.507812 Z M 208.628906 -100.957031 " fill-opacity="1" fill-rule="nonzero"/></g></g></g><g clip-path="url(#8be1a82306)"><g clip-path="url(#139067bf8b)"><g clip-path="url(#5e3768705d)"><path fill="#000000" d="M 512.765625 288.328125 L 503.863281 302.074219 L 496.152344 323.59375 L 492.386719 327.066406 L 479.851562 338.609375 L 474.1875 343.835938 L 465.566406 371.488281 C 465.566406 371.488281 457.671875 381.390625 453.503906 382.5625 C 449.375 383.765625 438.109375 397.917969 438.109375 397.917969 L 433.484375 402.15625 L 412.476562 440.539062 L 398.992188 452.957031 L 369.800781 459.683594 L 397.132812 458.082031 L 409.371094 453.335938 L 418.800781 444.640625 L 425.890625 438.132812 L 426.402344 425.859375 L 436.714844 418.179688 L 437.476562 405.179688 L 445.292969 397.980469 L 454.382812 388.300781 L 466.5625 378.398438 L 475.296875 365.132812 L 475.808594 352.859375 L 479.207031 345.164062 L 490.148438 336.394531 C 490.148438 336.394531 496.300781 331.40625 495.972656 331.058594 C 495.644531 330.710938 501.382812 320.828125 501.382812 320.828125 L 509.203125 305.136719 C 509.203125 305.136719 511.175781 298.722656 512.910156 298.464844 C 514.644531 298.207031 519.160156 295.324219 519.160156 295.324219 Z M 512.765625 288.328125 " fill-opacity="1" fill-rule="nonzero"/></g></g></g><g clip-path="url(#1b0394992d)"><g clip-path="url(#8b8f101755)"><g clip-path="url(#23ab44f910)"><path fill="#000000" d="M 510.109375 230.992188 L 513.386719 210.664062 L 512.855469 206.554688 L 521.71875 198.371094 L 533.246094 191.6875 C 533.246094 191.6875 544.335938 178.828125 544.789062 177.144531 C 545 176.320312 546.675781 174.246094 548.597656 172.386719 C 550.523438 170.53125 552.601562 168.933594 553.648438 168.960938 C 555.710938 169.050781 575.28125 141.191406 575.28125 141.191406 L 582.898438 130.234375 L 554.578125 163.535156 L 549.351562 166.367188 L 538.445312 182.28125 L 532.085938 188.160156 L 526.703125 191.171875 C 526.703125 191.171875 519.8125 196.214844 517.726562 196.800781 C 515.644531 197.386719 508.9375 203.597656 508.9375 203.597656 L 510.378906 210.136719 L 509.027344 214.816406 L 505.429688 225.863281 Z M 510.109375 230.992188 " fill-opacity="1" fill-rule="nonzero"/></g></g></g><g clip-path="url(#97438d29b1)"><g clip-path="url(#c6874eeeba)"><g clip-path="url(#ed591d2bbf)"><path fill="#000000" d="M 627.875 283.523438 L 639.824219 290.867188 L 652.132812 279.507812 C 652.132812 279.507812 664.523438 276.839844 665.949219 275.558594 C 667.375 274.277344 675.667969 260.503906 682.941406 259.886719 C 690.25 259.300781 708.664062 253.675781 713.339844 251.121094 C 717.980469 248.597656 753.46875 221.261719 755.839844 223.824219 C 758.214844 226.386719 780.71875 237.972656 780.71875 237.972656 C 780.71875 237.972656 788.867188 216.453125 790.183594 217.910156 C 791.464844 219.339844 807.0625 217.253906 809.546875 211.410156 C 812.070312 205.601562 829 189.058594 835.382812 188.234375 C 841.765625 187.410156 814.863281 195.117188 814.863281 195.117188 L 812.199219 202.1875 L 805.105469 208.691406 L 800.9375 211.246094 C 800.9375 211.246094 796.847656 211.097656 795.441406 211.707031 C 794.070312 212.34375 787.804688 214.777344 787.804688 214.777344 L 780.277344 223.671875 L 774.410156 225.136719 C 774.410156 225.136719 767.285156 224.496094 765.570312 224.078125 C 763.890625 223.691406 753.902344 221.703125 753.902344 221.703125 L 731.496094 226.195312 L 723.199219 234.234375 C 723.199219 234.234375 717.921875 237.777344 715.453125 240.042969 C 712.953125 242.347656 707.339844 246.859375 705.9375 247.53125 C 704.566406 248.167969 695.921875 250.871094 695.921875 250.871094 C 695.921875 250.871094 685.601562 255.585938 684.6875 255.988281 C 683.773438 256.390625 678.074219 256.421875 678.074219 256.421875 C 678.074219 256.421875 677.492188 259.128906 676.542969 260.003906 C 675.59375 260.878906 668.867188 263.988281 668.867188 263.988281 L 667.148438 267.785156 L 664.300781 270.414062 L 659.003906 272.242188 C 659.003906 272.242188 657.210938 271.695312 656.265625 272.132812 C 655.347656 272.535156 652.132812 273.335938 651.402344 273.960938 C 650.707031 274.617188 644.058594 275.460938 644.058594 275.460938 L 644.09375 279.773438 L 636.277344 281.746094 L 631.425781 278.484375 Z M 627.875 283.523438 " fill-opacity="1" fill-rule="nonzero"/></g></g></g><g clip-path="url(#fffd8a5b24)"><g clip-path="url(#b8583a355e)"><g clip-path="url(#60861f0b7d)"><path fill="#000000" d="M 383.054688 114.113281 L 376.753906 119.921875 L 376.972656 124.898438 L 372.257812 129.246094 L 369.0625 132.203125 C 369.0625 132.203125 364.207031 144.550781 365.488281 145.976562 C 366.773438 147.402344 360.359375 162.054688 360.359375 162.054688 L 348.253906 170.566406 C 348.253906 170.566406 342.445312 168.046875 340.4375 172.539062 C 338.429688 177.03125 336.488281 180.574219 334.625 181.414062 C 332.765625 182.253906 326.257812 185.617188 326.257812 185.617188 L 323.671875 187.148438 L 314.929688 196.066406 L 299.746094 204.425781 L 316.210938 198.4375 L 318.367188 196.023438 C 318.367188 196.023438 320.742188 193.867188 321.4375 193.210938 C 322.132812 192.554688 324.507812 190.394531 324.507812 190.394531 C 324.507812 190.394531 327.976562 188.933594 329.367188 188.566406 C 330.722656 188.167969 335.90625 184.730469 335.90625 184.730469 L 341.128906 179.941406 L 342.773438 173.183594 C 342.773438 173.183594 344.5625 174.167969 346.460938 172.414062 C 348.359375 170.660156 352.265625 171.023438 352.265625 171.023438 L 358.40625 165.394531 L 364.25 162.214844 C 364.25 162.214844 365.78125 158.632812 366.042969 157.539062 C 366.332031 156.402344 369.878906 147.453125 369.878906 147.453125 L 368.011719 143.503906 L 370.5 137.226562 L 372.507812 132.734375 L 377.4375 129.515625 L 380.875 123.304688 L 380.796875 120.34375 L 383.617188 119.199219 Z M 383.054688 114.113281 " fill-opacity="1" fill-rule="nonzero"/></g></g></g><g clip-path="url(#285da890db)"><g clip-path="url(#8e988beff7)"><g clip-path="url(#cf32312db3)"><path fill="#000000" d="M 813.835938 496.324219 L 833.535156 497.859375 L 872.578125 480.285156 L 893.226562 491.394531 L 909.484375 494.792969 L 920.558594 506.851562 L 935.867188 516.351562 L 975.394531 499.890625 L 988.546875 498.011719 L 973.539062 496.078125 L 935.996094 512.9375 L 928.667969 508.535156 L 923.078125 503.875 L 915.296875 495.425781 L 909.324219 489.679688 L 900.503906 487.945312 L 894.109375 485.296875 C 894.109375 485.296875 883.839844 484.070312 883.351562 483.835938 C 882.929688 483.597656 879.730469 480.824219 878.949219 480.710938 C 878.128906 480.566406 874.636719 480.308594 873.667969 479.464844 C 872.695312 478.625 870.34375 476.835938 870.34375 476.835938 L 865.394531 478.335938 L 843.964844 490.410156 C 843.964844 490.410156 840.839844 489.148438 840.109375 490.277344 C 839.382812 491.410156 837.992188 494.171875 837.457031 494.714844 C 836.855469 495.265625 832.527344 495.539062 832.527344 495.539062 C 832.527344 495.539062 829.746094 494.386719 828.582031 494.570312 C 827.414062 494.753906 819.152344 493.824219 819.152344 493.824219 Z M 813.835938 496.324219 " fill-opacity="1" fill-rule="nonzero"/></g></g></g></g></g></g></g></svg>