<svg width="72" height="72" viewBox="0 0 72 72" fill="none" xmlns="http://www.w3.org/2000/svg">
<path d="M36.641 23.012L40.117 26.752L37.922 30.756L37.936 36.303H22.978L22.592 32.459L21.554 30.277L22.063 27.49L21.298 20.899L33.33 11.134L40.153 14.303L36.641 23.012Z" fill="#9B9B9A"/>
<path d="M36.641 23.012L40.117 26.752L37.922 30.756L37.936 36.303H47.788L47.633 32.761L46.005 28.481L46.823 24.602L46.104 16.936L40.153 14.303L36.641 23.012Z" fill="#3F3F3F"/>
<path d="M19.258 58.568C19.258 49.412 26.242 42.143 35.925 41.989C45.037 41.845 52.567 48.222 52.592 58.568H19.258Z" fill="#EA5A47"/>
<path d="M32.584 30.1531H27.436L26.919 24.2451H32.067L32.584 30.1531Z" fill="white"/>
<path d="M29.739 57.962C29.739 56.3214 30.3907 54.748 31.5508 53.5879C32.7109 52.4278 34.2844 51.776 35.925 51.776C37.5656 51.776 39.1391 52.4278 40.2992 53.5879C41.4593 54.748 42.111 56.3214 42.111 57.962M54.588 43.778C57.806 46.871 59.903 52.396 59.903 57.421M11.947 57.42C12.1339 52.3467 14.1352 47.5088 17.587 43.786M46.104 16.936L46.823 24.602L46.005 28.481L47.633 32.761L47.788 36.303M22.9 35.531L22.592 32.459L21.554 30.277L22.063 27.49L21.298 20.899" stroke="black" stroke-width="0.5" stroke-linecap="round" stroke-linejoin="round"/>
<path d="M18.743 22.984L33.33 11.134L49.646 18.544" stroke="black" stroke-width="0.5" stroke-linecap="round" stroke-linejoin="round"/>
<path d="M25.718 17.1829L25.079 12.3989" stroke="black" stroke-width="0.5" stroke-miterlimit="10" stroke-linecap="round"/>
<path d="M26.919 24.2451H32.067L32.584 30.1531M38.164 19.2371L36.641 23.0121L40.117 26.7241L37.93 30.7581L37.937 36.2141M12.32 36.3031H32.675M42.84 36.3031H59.68M40.978 42.6151C44.3201 43.543 47.2657 45.5412 49.3634 48.3034C51.4611 51.0657 52.5953 54.4396 52.592 57.9081M19.258 57.9081C19.258 50.5991 24.868 43.6711 33.004 42.2611" stroke="black" stroke-width="0.5" stroke-linecap="round" stroke-linejoin="round"/>
</svg>
